<?xml version="1.0" encoding="UTF-8"?>
<svg width="258px" height="132px" viewBox="0 0 258 132" version="1.1" xmlns="http://www.w3.org/2000/svg" xmlns:xlink="http://www.w3.org/1999/xlink">
    <!-- Generator: Sketch 62 (91390) - https://sketch.com -->
    <title>Group</title>
    <desc>Created with Sketch.</desc>
    <g id="Page-2" stroke="none" stroke-width="1" fill="none" fill-rule="evenodd">
        <g id="Group" fill="#1D1D1D">
            <path d="M89.5854,98.9346 L90.8424,98.9346 C93.8494,98.9346 95.5594,96.4896 95.5594,93.3996 C95.5594,90.3566 94.3564,88.2116 91.2664,88.1296 C90.6474,88.1296 89.9704,88.1816 89.5854,88.3406 L89.5854,98.9346 Z M82.6964,83.4076 C84.8714,82.9636 87.6104,82.7236 90.2474,82.7236 C94.0294,82.7236 97.4414,83.2736 99.7344,85.3716 C101.8884,87.3386 102.5564,89.7116 102.5564,92.7676 C102.5564,96.5756 100.6904,99.9746 97.0724,101.6556 L97.0724,101.7586 C99.4834,102.7386 100.7104,104.9686 101.3894,108.8116 C102.0794,112.7476 103.0334,117.1626 103.6654,118.4556 L96.4404,118.4556 C95.9954,117.4706 95.1964,113.8776 94.6544,109.9416 C94.0484,105.5186 92.9204,104.2686 90.6234,104.2686 L89.5854,104.2686 L89.5854,118.4556 L82.6964,118.4556 L82.6964,83.4076 Z" id="Fill-83"></path>
            <path d="M112.9912,100.667 C112.9912,108.738 114.4892,112.864 117.2962,112.864 C120.2262,112.864 121.3272,107.569 121.3272,100.375 C121.3272,94.096 120.3702,88.47 117.2422,88.47 C114.4892,88.47 112.9912,93.034 112.9912,100.667 M128.5302,100.044 C128.5302,113.457 123.7632,118.877 117.0202,118.877 C108.9732,118.877 105.7882,110.346 105.7882,100.585 C105.7882,90.868 109.6502,82.457 117.5302,82.457 C126.1062,82.457 128.5302,91.891 128.5302,100.044" id="Fill-84"></path>
            <path d="M149.9482,117.9355 C148.9532,118.4035 147.0152,118.7735 144.6122,118.7735 C135.5202,118.7735 131.1772,111.2995 131.1772,101.2045 C131.1772,87.7945 138.6192,82.5645 145.5152,82.5645 C147.9672,82.5645 149.6532,83.0585 150.3492,83.4935 L149.1962,89.3255 C148.3822,88.9465 147.4942,88.6205 145.9772,88.6205 C142.0332,88.6205 138.5052,92.0235 138.5052,100.8215 C138.5052,109.3135 141.7432,112.6355 145.9382,112.6355 C147.0982,112.6355 148.4282,112.3775 149.2732,112.1115 L149.9482,117.9355 Z" id="Fill-85"></path>
            <path d="M153.7686,82.8779 L160.6586,82.8779 L160.6586,98.8969 L160.8066,98.8969 C161.3826,97.3749 161.9236,95.8359 162.5386,94.2759 L167.2686,82.8779 L174.8926,82.8779 L166.9156,98.3719 L174.9996,118.4549 L167.4426,118.4549 L162.2636,103.7349 L160.6586,106.6409 L160.6586,118.4549 L153.7686,118.4549 L153.7686,82.8779 Z" id="Fill-86"></path>
            <path d="M22,61.0488 C17.065,61.0488 13.065,56.5608 13.065,51.0248 C13.065,45.4878 17.065,40.9998 22,40.9998 C24.538,40.9998 26.824,42.1938 28.45,44.0998 L33.765,33.4708 C30.189,30.0618 25.56,27.9998 20.5,27.9998 C9.178,27.9998 0,38.2978 0,50.9998 C0,63.7018 9.178,73.9998 20.5,73.9998 C27.1,73.9998 32.968,70.4958 36.717,65.0608 L29.52,56.4238 C27.932,59.2018 25.161,61.0488 22,61.0488" id="Fill-87"></path>
            <path d="M56.3477,45 C59.7937,45 62.5867,48.134 62.5867,52 C62.5867,55.866 59.7937,59 56.3477,59 C52.9017,59 50.1087,55.866 50.1087,52 C50.1087,48.134 52.9017,45 56.3477,45 M55.4997,75 C66.8217,75 75.9997,64.702 75.9997,52 C75.9997,39.298 66.8217,29 55.4997,29 C44.1787,29 34.9997,39.298 34.9997,52 C34.9997,64.702 44.1787,75 55.4997,75" id="Fill-88"></path>
            <polygon id="Fill-89" points="111 30 102 46 97 30 84 30 76 74 92 74 93 56 98 66 107 66 113 56 114 75 130 75 123 30"></polygon>
            <polygon id="Fill-90" points="133 74 161 74 161 61 144 61 144 56 153 56 153 48 144 48 144 42 161 42 161 30 132 30"></polygon>
            <path d="M178,59 L177,41 C177,41 186,41 186,49 C186,57 178,59 178,59 M174,29 L164,29 L165,74 L176,74 C176,74 199,74 199,51 C199,28 174,29 174,29" id="Fill-91"></path>
            <polygon id="Fill-92" points="214 39 210 30 195 30 206 50 206 74 221 74 221 51 232 31 217 31"></polygon>
            <polygon id="Fill-93" points="258 16 243 18 250 0 232 26 247 23 236 41"></polygon>
            <polygon id="Fill-94" points="50 78 59 101 39 98 69 132 53 107 73 110"></polygon>
        </g>
    </g>
</svg>