<?xml version="1.0" encoding="UTF-8"?>
<svg width="515px" height="515px" viewBox="0 0 515 515" version="1.1" xmlns="http://www.w3.org/2000/svg" xmlns:xlink="http://www.w3.org/1999/xlink">
    <!-- Generator: Sketch 62 (91390) - https://sketch.com -->
    <title>Group 95</title>
    <desc>Created with Sketch.</desc>
    <defs>
        <polygon id="path-1" points="0 515 515 515 515 0 0 0"></polygon>
    </defs>
    <g id="Page-1" stroke="none" stroke-width="1" fill="none" fill-rule="evenodd">
        <g id="Group-95">
            <path d="M515,257.5 C515,399.713 399.713,515 257.5,515 C115.287,515 0,399.713 0,257.5 C0,115.287 115.287,0 257.5,0 C399.713,0 515,115.287 515,257.5" id="Fill-1" fill="#FB1C4D"></path>
            <path d="M417,217 C417,313.098 339.098,391 243,391 C146.902,391 69,313.098 69,217 C69,120.902 146.902,43 243,43 C339.098,43 417,120.902 417,217" id="Fill-3" fill="#F50023"></path>
            <path d="M143.4097,173.7861 C136.5217,173.9051 130.9997,179.5221 130.9997,186.4111 L130.9997,187.0501 C130.6697,187.0201 130.3377,187.0001 129.9997,187.0001 L124.9997,187.0001 C118.9247,187.0001 113.9997,191.9251 113.9997,198.0001 C113.9997,204.0751 118.9247,209.0001 124.9997,209.0001 L129.9997,209.0001 C130.4037,209.0001 130.8007,208.9751 131.1927,208.9321 C132.1817,214.7331 137.1187,219.2111 143.1927,219.4201 L362.4997,226.7821 L362.4997,170.1091 L143.4097,173.7861 Z" id="Fill-5" fill="#0F0F0F"></path>
            <mask id="mask-2" fill="white">
                <use xlink:href="#path-1"></use>
            </mask>
            <g id="Clip-8"></g>
            <circle id="Oval" fill="#0F0F0F" mask="url(#mask-2)" cx="429" cy="198" r="60"></circle>
            <path d="M452.25,163.58 L460.25,163.58 L460.25,155.58 L452.25,155.58 L452.25,163.58 Z M452.25,174.58 L460.25,174.58 L460.25,166.58 L452.25,166.58 L452.25,174.58 Z M452.25,185.58 L460.25,185.58 L460.25,177.58 L452.25,177.58 L452.25,185.58 Z M452.25,196.58 L460.25,196.58 L460.25,188.58 L452.25,188.58 L452.25,196.58 Z M452.25,207.58 L460.25,207.58 L460.25,199.58 L452.25,199.58 L452.25,207.58 Z M452.25,218.58 L460.25,218.58 L460.25,210.58 L452.25,210.58 L452.25,218.58 Z M452.25,229.58 L460.25,229.58 L460.25,221.58 L452.25,221.58 L452.25,229.58 Z M452.25,240.58 L460.25,240.58 L460.25,232.58 L452.25,232.58 L452.25,240.58 Z M463.25,229.58 L471.25,229.58 L471.25,221.58 L463.25,221.58 L463.25,229.58 Z M463.25,218.58 L471.25,218.58 L471.25,210.58 L463.25,210.58 L463.25,218.58 Z M463.25,207.58 L471.25,207.58 L471.25,199.58 L463.25,199.58 L463.25,207.58 Z M463.25,196.58 L471.25,196.58 L471.25,188.58 L463.25,188.58 L463.25,196.58 Z M463.25,185.58 L471.25,185.58 L471.25,177.58 L463.25,177.58 L463.25,185.58 Z M463.25,174.58 L471.25,174.58 L471.25,166.58 L463.25,166.58 L463.25,174.58 Z M474.25,207.58 L482.25,207.58 L482.25,199.58 L474.25,199.58 L474.25,207.58 Z M441.25,163.58 L449.25,163.58 L449.25,155.58 L441.25,155.58 L441.25,163.58 Z M441.25,174.58 L449.25,174.58 L449.25,166.58 L441.25,166.58 L441.25,174.58 Z M441.25,185.58 L449.25,185.58 L449.25,177.58 L441.25,177.58 L441.25,185.58 Z M441.25,196.58 L449.25,196.58 L449.25,188.58 L441.25,188.58 L441.25,196.58 Z M441.25,207.58 L449.25,207.58 L449.25,199.58 L441.25,199.58 L441.25,207.58 Z M441.25,218.58 L449.25,218.58 L449.25,210.58 L441.25,210.58 L441.25,218.58 Z M441.25,229.58 L449.25,229.58 L449.25,221.58 L441.25,221.58 L441.25,229.58 Z M441.25,240.58 L449.25,240.58 L449.25,232.58 L441.25,232.58 L441.25,240.58 Z M430.25,163.58 L438.25,163.58 L438.25,155.58 L430.25,155.58 L430.25,163.58 Z M430.25,174.58 L438.25,174.58 L438.25,166.58 L430.25,166.58 L430.25,174.58 Z M430.25,185.58 L438.25,185.58 L438.25,177.58 L430.25,177.58 L430.25,185.58 Z M430.25,196.58 L438.25,196.58 L438.25,188.58 L430.25,188.58 L430.25,196.58 Z M430.25,207.58 L438.25,207.58 L438.25,199.58 L430.25,199.58 L430.25,207.58 Z M430.25,218.58 L438.25,218.58 L438.25,210.58 L430.25,210.58 L430.25,218.58 Z M430.25,229.58 L438.25,229.58 L438.25,221.58 L430.25,221.58 L430.25,229.58 Z M430.25,240.58 L438.25,240.58 L438.25,232.58 L430.25,232.58 L430.25,240.58 Z M430.25,251.58 L438.25,251.58 L438.25,243.58 L430.25,243.58 L430.25,251.58 Z M419.25,163.58 L427.25,163.58 L427.25,155.58 L419.25,155.58 L419.25,163.58 Z M419.25,174.58 L427.25,174.58 L427.25,166.58 L419.25,166.58 L419.25,174.58 Z M419.25,185.58 L427.25,185.58 L427.25,177.58 L419.25,177.58 L419.25,185.58 Z M419.25,196.58 L427.25,196.58 L427.25,188.58 L419.25,188.58 L419.25,196.58 Z M419.25,207.58 L427.25,207.58 L427.25,199.58 L419.25,199.58 L419.25,207.58 Z M419.25,218.58 L427.25,218.58 L427.25,210.58 L419.25,210.58 L419.25,218.58 Z M419.25,229.58 L427.25,229.58 L427.25,221.58 L419.25,221.58 L419.25,229.58 Z M419.25,240.58 L427.25,240.58 L427.25,232.58 L419.25,232.58 L419.25,240.58 Z M419.25,251.58 L427.25,251.58 L427.25,243.58 L419.25,243.58 L419.25,251.58 Z M408.25,163.58 L416.25,163.58 L416.25,155.58 L408.25,155.58 L408.25,163.58 Z M408.25,174.58 L416.25,174.58 L416.25,166.58 L408.25,166.58 L408.25,174.58 Z M408.25,185.58 L416.25,185.58 L416.25,177.58 L408.25,177.58 L408.25,185.58 Z M408.25,196.58 L416.25,196.58 L416.25,188.58 L408.25,188.58 L408.25,196.58 Z M408.25,207.58 L416.25,207.58 L416.25,199.58 L408.25,199.58 L408.25,207.58 Z M408.25,218.58 L416.25,218.58 L416.25,210.58 L408.25,210.58 L408.25,218.58 Z M408.25,229.58 L416.25,229.58 L416.25,221.58 L408.25,221.58 L408.25,229.58 Z M408.25,240.58 L416.25,240.58 L416.25,232.58 L408.25,232.58 L408.25,240.58 Z M397.25,163.58 L405.25,163.58 L405.25,155.58 L397.25,155.58 L397.25,163.58 Z M397.25,174.58 L405.25,174.58 L405.25,166.58 L397.25,166.58 L397.25,174.58 Z M397.25,185.58 L405.25,185.58 L405.25,177.58 L397.25,177.58 L397.25,185.58 Z M397.25,196.58 L405.25,196.58 L405.25,188.58 L397.25,188.58 L397.25,196.58 Z M397.25,207.58 L405.25,207.58 L405.25,199.58 L397.25,199.58 L397.25,207.58 Z M397.25,218.58 L405.25,218.58 L405.25,210.58 L397.25,210.58 L397.25,218.58 Z M397.25,229.58 L405.25,229.58 L405.25,221.58 L397.25,221.58 L397.25,229.58 Z M397.25,240.58 L405.25,240.58 L405.25,232.58 L397.25,232.58 L397.25,240.58 Z M386.25,174.58 L394.25,174.58 L394.25,166.58 L386.25,166.58 L386.25,174.58 Z M386.25,185.58 L394.25,185.58 L394.25,177.58 L386.25,177.58 L386.25,185.58 Z M386.25,196.58 L394.25,196.58 L394.25,188.58 L386.25,188.58 L386.25,196.58 Z M386.25,207.58 L394.25,207.58 L394.25,199.58 L386.25,199.58 L386.25,207.58 Z M386.25,218.58 L394.25,218.58 L394.25,210.58 L386.25,210.58 L386.25,218.58 Z M386.25,229.58 L394.25,229.58 L394.25,221.58 L386.25,221.58 L386.25,229.58 Z M375.75,207.58 L383.25,207.58 L383.25,199.58 L375.75,199.58 L375.75,207.58 Z M449.25,148.94 L449.25,152.58 L441.25,152.58 L441.25,146.413 C440.26,146.183 439.26,145.98 438.25,145.806 L438.25,152.58 L430.25,152.58 L430.25,145.08 L431.906,145.08 C430.944,145.029 429.976,145 429,145 C428.024,145 427.056,145.029 426.094,145.08 L427.25,145.08 L427.25,152.58 L419.25,152.58 L419.25,145.895 C418.24,146.079 417.239,146.288 416.25,146.528 L416.25,152.58 L408.25,152.58 L408.25,149.138 C407.233,149.561 406.234,150.016 405.25,150.498 L405.25,152.58 L401.413,152.58 C398.884,154.086 396.49,155.793 394.25,157.679 L394.25,163.58 L388.259,163.58 C386.421,165.691 384.745,167.944 383.25,170.325 L383.25,174.58 L380.842,174.58 C380.342,175.564 379.865,176.562 379.425,177.58 L383.25,177.58 L383.25,185.58 L376.683,185.58 C376.43,186.568 376.212,187.57 376.015,188.58 L383.25,188.58 L383.25,196.58 L375.75,196.58 L375.75,190.061 C375.265,192.97 375,195.953 375,199 C375,202.977 375.442,206.848 376.258,210.58 L383.25,210.58 L383.25,218.58 L378.676,218.58 C379.071,219.596 379.495,220.596 379.949,221.58 L383.25,221.58 L383.25,227.675 C384.319,229.377 385.48,231.013 386.727,232.58 L394.25,232.58 L394.25,240.321 C395.621,241.476 397.048,242.564 398.53,243.58 L405.25,243.58 L405.25,247.502 C406.234,247.984 407.233,248.439 408.25,248.862 L408.25,243.58 L416.25,243.58 L416.25,251.472 C420.34,252.462 424.606,253 429,253 C433.227,253 437.335,252.499 441.282,251.58 L441.25,251.58 L441.25,243.58 L449.25,243.58 L449.25,249.06 C450.265,248.649 451.268,248.217 452.25,247.748 L452.25,243.58 L459.47,243.58 C460.844,242.64 462.174,241.641 463.452,240.58 L463.25,240.58 L463.25,232.58 L471.25,232.58 L471.25,232.609 C472.313,231.274 473.314,229.889 474.25,228.455 L474.25,221.58 L478.051,221.58 C478.505,220.596 478.929,219.596 479.324,218.58 L474.25,218.58 L474.25,210.58 L481.742,210.58 C482.558,206.848 483,202.977 483,199 C483,195.953 482.734,192.97 482.25,190.061 L482.25,196.58 L474.25,196.58 L474.25,188.58 L481.985,188.58 C481.788,187.57 481.57,186.568 481.317,185.58 L474.25,185.58 L474.25,177.58 L478.575,177.58 C478.135,176.562 477.658,175.564 477.158,174.58 L474.25,174.58 L474.25,169.545 C472.884,167.45 471.377,165.459 469.741,163.58 L463.25,163.58 L463.25,157.253 C461.156,155.533 458.928,153.974 456.588,152.58 L452.25,152.58 L452.25,150.252 C451.268,149.783 450.265,149.351 449.25,148.94 L449.25,148.94 Z" id="Fill-1" fill="#969696" mask="url(#mask-2)"></path>
            <path d="M435.0996,246.8379 L435.0996,242.0819 L435.0996,235.4249 L435.0996,230.6689 L435.0996,224.0119 L435.0996,219.2569 L435.0996,213.5509 L435.0996,208.7949 L435.0996,199.7599 L435.0996,195.0049 L435.0996,191.6759 L435.0996,186.9209 L435.0996,181.2139 L435.0996,176.4589 L435.0996,167.8999 L435.0996,163.1439 L435.0996,156.4869 L435.0996,151.7319 L435.0996,138.3339 C435.0996,137.1649 434.7606,136.0769 434.1826,135.1549 C433.1206,133.4629 431.2456,132.3339 429.0996,132.3339 C426.8956,132.3339 424.9736,133.5259 423.9306,135.2979 C423.4066,136.1899 423.0996,137.2249 423.0996,138.3339 L423.0996,151.7319 L423.0996,156.4869 L423.0996,163.1439 L423.0996,167.8999 L423.0996,176.4589 L423.0996,181.2139 L423.0996,186.9209 L423.0996,191.6759 L423.0996,195.0049 L423.0996,199.7599 L423.0996,208.7949 L423.0996,213.5509 L423.0996,219.2569 L423.0996,224.0119 L423.0996,230.6689 L423.0996,235.4249 L423.0996,242.0819 L423.0996,246.8379 L423.0996,258.3329 C423.0996,258.7789 423.1526,259.2129 423.2446,259.6309 C423.8376,262.3199 426.2326,264.3329 429.0996,264.3329 C431.9106,264.3329 434.2626,262.3989 434.9146,259.7889 C435.0316,259.3219 435.0996,258.8369 435.0996,258.3329 L435.0996,246.8379 Z" id="Fill-77" fill="#1D1D1D" mask="url(#mask-2)"></path>
            <path d="M376.5,224.0117 L376.5,219.2567 L376.5,213.5507 L376.5,208.7947 L376.5,199.7597 L376.5,195.0047 L376.5,191.6757 L376.5,186.9207 L376.5,181.2147 L376.5,176.4587 L376.5,169.8337 C376.5,168.6577 376.207,167.5507 375.694,166.5767 C374.521,164.3517 372.189,162.8337 369.5,162.8337 C365.634,162.8337 362.5,165.9677 362.5,169.8337 L362.5,170.1087 L362.5,226.7827 L362.5,226.8327 C362.5,230.6987 365.634,233.8327 369.5,233.8327 C372.558,233.8327 375.151,231.8687 376.104,229.1367 C376.356,228.4137 376.5,227.6417 376.5,226.8327 L376.5,224.0117 Z" id="Fill-78" fill="#1D1D1D" mask="url(#mask-2)"></path>
            <path d="M280.3184,171.0386 L317.7164,169.2026 C318.2654,169.2366 318.7374,168.8186 318.7714,168.2696 L323.2404,91.8106 C323.8644,81.6156 316.1034,72.8446 305.9084,72.2206 L305.4584,72.1936 C295.2624,71.5706 286.4914,79.3306 285.8684,89.5266 L279.3974,169.9986 C279.3654,170.5396 279.7774,171.0056 280.3184,171.0386" id="Fill-79" fill="#FFFFFF" mask="url(#mask-2)"></path>
            <path d="M238.8599,229.3896 C236.9799,236.9596 230.4499,242.8396 222.2499,243.5306 C221.7199,243.5706 221.1899,243.5996 220.6699,243.5996 C220.3999,243.5996 220.1299,243.5896 219.8599,243.5796 C210.5799,243.1796 202.8299,235.9296 202.0299,226.4296 L197.5899,173.2406 C196.7899,163.6296 203.3899,155.1196 212.6399,153.3196 C213.2999,153.1806 213.9899,153.0896 214.6799,153.0296 C224.9899,152.1696 234.0399,159.8196 234.8999,170.1296 L235.7399,180.2296 C235.3299,180.2096 234.9099,180.2006 234.4999,180.1896 C230.5699,180.1096 227.2099,181.6496 224.7099,184.6896 C220.0199,190.3996 219.9099,199.9406 220.9499,204.6106 C222.6399,212.1796 230.6999,224.2096 238.8599,229.3896" id="Fill-80" fill="#FFFFFF" mask="url(#mask-2)"></path>
            <path d="M238.1802,180.3198 C247.9502,180.6898 257.7702,181.6398 267.3202,182.5598 C270.1802,182.8398 273.1002,183.1198 276.0102,183.3798 L273.9002,158.1298 C273.0402,147.8198 263.9902,140.1698 253.6802,141.0298 C243.3802,141.8898 235.7302,150.9398 236.5902,161.2398 L238.1802,180.3198 Z" id="Fill-81" fill="#FFFFFF" mask="url(#mask-2)"></path>
            <path d="M323,288 C307,313 293,322 293,322 L293,412 L205,412 L205,324 C205,324 191,321 173,288 C164.75,272.87 162.81,257.75 163.12,245.8 L145.31,132.16 C145.16,131.18 145.08,130.2 145.08,129.24 C145.08,120.17 151.67,112.21 160.91,110.76 C171.12,109.16 180.7,116.15 182.3,126.36 L191.59,185.61 L195.25,231.52 C195.75,237.79 198.67,243.49 203.46,247.57 C205.94,249.69 208.78,251.24 211.81,252.16 C214.49,253.32 217.54,254 221,254 C235.81,254 244.1,242.18 246.9,233.71 C250.85,235.9 254.98,237.65 259.21,238.97 C251.35,242.68 244.14,247.25 238.22,253.74 C229.63,263.14 222.26,276.11 216.31,292.27 C215.35,294.86 216.68,297.74 219.27,298.69 C219.84,298.9 220.43,299 221,299 C223.03,299 224.95,297.75 225.69,295.73 C231.2,280.78 237.89,268.92 245.6,260.48 C254.09,251.19 266.56,246.23 279.67,241.58 C281.96,240.76 283.34,238.42 282.93,236.02 C282.52,233.62 280.44,231.87 278.01,231.86 C267.93,231.85 257.52,228.76 248.7,223.17 C243.94,220.15 232.66,212.13 230.63,202.73 C229.66,198.23 231.07,193.3 232.75,189.13 L299,194 L328,232 C328,232 339,263 323,288" id="Fill-82" fill="#FFFFFF" mask="url(#mask-2)"></path>
            <path d="M216.5854,443.9346 L217.8424,443.9346 C220.8494,443.9346 222.5594,441.4896 222.5594,438.3996 C222.5594,435.3566 221.3564,433.2116 218.2664,433.1296 C217.6474,433.1296 216.9704,433.1816 216.5854,433.3406 L216.5854,443.9346 Z M209.6964,428.4076 C211.8714,427.9636 214.6104,427.7236 217.2474,427.7236 C221.0294,427.7236 224.4414,428.2736 226.7344,430.3716 C228.8884,432.3386 229.5564,434.7116 229.5564,437.7676 C229.5564,441.5756 227.6904,444.9746 224.0724,446.6556 L224.0724,446.7586 C226.4834,447.7386 227.7104,449.9686 228.3894,453.8116 C229.0794,457.7476 230.0334,462.1626 230.6654,463.4556 L223.4404,463.4556 C222.9954,462.4706 222.1964,458.8776 221.6544,454.9416 C221.0484,450.5186 219.9204,449.2686 217.6234,449.2686 L216.5854,449.2686 L216.5854,463.4556 L209.6964,463.4556 L209.6964,428.4076 Z" id="Fill-83" fill="#000000" mask="url(#mask-2)"></path>
            <path d="M239.9912,445.667 C239.9912,453.738 241.4892,457.864 244.2962,457.864 C247.2262,457.864 248.3272,452.569 248.3272,445.375 C248.3272,439.096 247.3702,433.47 244.2422,433.47 C241.4892,433.47 239.9912,438.034 239.9912,445.667 M255.5302,445.044 C255.5302,458.457 250.7632,463.877 244.0202,463.877 C235.9732,463.877 232.7882,455.346 232.7882,445.585 C232.7882,435.868 236.6502,427.457 244.5302,427.457 C253.1062,427.457 255.5302,436.891 255.5302,445.044" id="Fill-84" fill="#000000" mask="url(#mask-2)"></path>
            <path d="M276.9482,462.9355 C275.9532,463.4035 274.0152,463.7735 271.6122,463.7735 C262.5202,463.7735 258.1772,456.2995 258.1772,446.2045 C258.1772,432.7945 265.6192,427.5645 272.5152,427.5645 C274.9672,427.5645 276.6532,428.0585 277.3492,428.4935 L276.1962,434.3255 C275.3822,433.9465 274.4942,433.6205 272.9772,433.6205 C269.0332,433.6205 265.5052,437.0235 265.5052,445.8215 C265.5052,454.3135 268.7432,457.6355 272.9382,457.6355 C274.0982,457.6355 275.4282,457.3775 276.2732,457.1115 L276.9482,462.9355 Z" id="Fill-85" fill="#000000" mask="url(#mask-2)"></path>
            <path d="M280.7686,427.8779 L287.6586,427.8779 L287.6586,443.8969 L287.8066,443.8969 C288.3826,442.3749 288.9236,440.8359 289.5386,439.2759 L294.2686,427.8779 L301.8926,427.8779 L293.9156,443.3719 L301.9996,463.4549 L294.4426,463.4549 L289.2636,448.7349 L287.6586,451.6409 L287.6586,463.4549 L280.7686,463.4549 L280.7686,427.8779 Z" id="Fill-86" fill="#000000" mask="url(#mask-2)"></path>
            <path d="M149,406.0488 C144.065,406.0488 140.065,401.5608 140.065,396.0248 C140.065,390.4878 144.065,385.9998 149,385.9998 C151.538,385.9998 153.824,387.1938 155.45,389.0998 L160.765,378.4708 C157.189,375.0618 152.56,372.9998 147.5,372.9998 C136.178,372.9998 127,383.2978 127,395.9998 C127,408.7018 136.178,418.9998 147.5,418.9998 C154.1,418.9998 159.968,415.4958 163.717,410.0608 L156.52,401.4238 C154.932,404.2018 152.161,406.0488 149,406.0488" id="Fill-87" fill="#000000" mask="url(#mask-2)"></path>
            <path d="M183.3477,390 C186.7937,390 189.5867,393.134 189.5867,397 C189.5867,400.866 186.7937,404 183.3477,404 C179.9017,404 177.1087,400.866 177.1087,397 C177.1087,393.134 179.9017,390 183.3477,390 M182.4997,420 C193.8217,420 202.9997,409.702 202.9997,397 C202.9997,384.298 193.8217,374 182.4997,374 C171.1787,374 161.9997,384.298 161.9997,397 C161.9997,409.702 171.1787,420 182.4997,420" id="Fill-88" fill="#000000" mask="url(#mask-2)"></path>
            <polygon id="Fill-89" fill="#000000" mask="url(#mask-2)" points="238 375 229 391 224 375 211 375 203 419 219 419 220 401 225 411 234 411 240 401 241 420 257 420 250 375"></polygon>
            <polygon id="Fill-90" fill="#000000" mask="url(#mask-2)" points="260 419 288 419 288 406 271 406 271 401 280 401 280 393 271 393 271 387 288 387 288 375 259 375"></polygon>
            <path d="M305,404 L304,386 C304,386 313,386 313,394 C313,402 305,404 305,404 M301,374 L291,374 L292,419 L303,419 C303,419 326,419 326,396 C326,373 301,374 301,374" id="Fill-91" fill="#000000" mask="url(#mask-2)"></path>
            <polygon id="Fill-92" fill="#000000" mask="url(#mask-2)" points="341 384 337 375 322 375 333 395 333 419 348 419 348 396 359 376 344 376"></polygon>
            <polygon id="Fill-93" fill="#000000" mask="url(#mask-2)" points="385 361 370 363 377 345 359 371 374 368 363 386"></polygon>
            <polygon id="Fill-94" fill="#000000" mask="url(#mask-2)" points="177 423 186 446 166 443 196 477 180 452 200 455"></polygon>
        </g>
    </g>
</svg>